#!OML:ASF H:\Terrain\Patient Classification 1\Terrain2\Thursday\justin.ASF
:FULLY-SPECIFIED
:DEGREES
3311
root 30.1701 17.6641 -10.9081 1027.25 -100.761 -308.323
lowerback 10.9283 2.41221 11.3463
upperback 4.0946 4.15813 3.35387
thorax -1.21289 2.01946 -3.29236
lowerneck -11.9248 -0.977381 -8.42679
upperneck 38.2828 -2.63759 4.65848
head 15.67 -2.24938 2.93213
rclavicle -1.93815e-014 -4.77083e-015
rhumerus -26.3651 -9.43689 -79.5927
rradius 31.8415
rwrist -12.3487
rhand -24.277 11.6942
rfingers 7.12502
rthumb 2.20981 -18.2741
lclavicle -1.93815e-014 -4.77083e-015
lhumerus -36.8574 14.0525 81.0843
lradius 25.5201
lwrist -2.24022
lhand -17.4876 20.1047
lfingers 7.12502
lthumb 8.76487 49.9027
rfemur 13.4264 -5.96818 31.8244
rtibia 2.74132
rfoot -12.3303 4.16698
rtoes 4.77777
lfemur -53.0762 11.2394 -13.1807
ltibia 97.2186
lfoot -20.3672 -13.9697
ltoes 0.158527
3312
root 30.1382 17.6466 -10.9251 1026.73 -101.012 -307.808
lowerback 11.062 2.0744 11.1221
upperback 4.24078 3.67853 3.83649
thorax -1.24514 1.76594 -2.62155
lowerneck -12.3638 -0.638081 -9.51318
upperneck 38.3185 -1.77485 4.74678
head 15.7303 -2.02815 3.3094
rclavicle 3.77691e-014 -1.66979e-014
rhumerus -25.8964 -7.63336 -79.6761
rradius 31.6617
rwrist -12.4463
rhand -24.0812 11.707
rfingers 7.12502
rthumb 2.39894 -18.2593
lclavicle 3.77691e-014 -1.66979e-014
lhumerus -37.0826 16.494 81.0542
lradius 25.7337
lwrist -3.1935
lhand -17.3801 19.6078
lfingers 7.12502
lthumb 8.8686 49.4014
rfemur 14.9648 -5.85095 32.0976
rtibia -7.31528e-014
rfoot -10.9556 4.53129
rtoes 7.57503
lfemur -54.3285 12.107 -13.0842
ltibia 97.5587
lfoot -20.5976 -14.6366
ltoes -2.29376
3313
root 30.1046 17.6484 -10.9424 1026.17 -101.311 -307.296
lowerback 11.2784 2.0189 11.2587
upperback 4.32181 3.63141 3.99767
thorax -1.28299 1.73573 -2.53003
lowerneck -12.4866 -0.553228 -9.85354
upperneck 38.177 -1.54589 4.86102
head 15.6699 -1.95408 3.45536
rclavicle -1.76918e-014 3.97569e-015
rhumerus -25.7951 -7.30167 -79.762
rradius 31.5192
rwrist -12.3389
rhand -23.7965 11.9168
rfingers 7.12502
rthumb 2.67387 -18.0462
lclavicle -1.76918e-014 3.97569e-015
lhumerus -36.9681 16.7494 81.3623
lradius 26.0301
lwrist -2.98208
lhand -17.4343 19.7162
lfingers 7.12502
lthumb 8.81629 49.512
rfemur 15.143 -5.72794 32.4658
rtibia 4.45278e-014
rfoot -11.0229 4.49561
rtoes 8.99152
lfemur -55.2591 12.2276 -12.8107
ltibia 97.6088
lfoot -20.5612 -15.0314
ltoes -2.63981
3314
root 30.0726 17.65 -10.9528 1024.99 -101.662 -306.178
lowerback 11.6118 2.08843 11.8124
upperback 4.33514 3.82052 3.9888
thorax -1.38276 1.82441 -2.87464
lowerneck -12.4836 -0.612901 -9.72251
upperneck 38.0742 -1.66039 4.87588
head 15.6272 -1.97193 3.41786
rclavicle -3.65764e-014 -3.97569e-015
rhumerus -25.9282 -7.43049 -79.9278
rradius 31.5121
rwrist -12.3707
rhand -23.4958 11.9095
rfingers 7.12502
rthumb 2.96431 -18.0496
lclavicle -3.65764e-014 -3.97569e-015
lhumerus -36.6191 15.787 81.9331
lradius 26.2579
lwrist -2.03353
lhand -17.7027 19.8952
lfingers 7.12502
lthumb 8.55726 49.7018
rfemur 15.2924 -5.69039 32.9808
rtibia -6.36111e-015
rfoot -11.0958 4.36081
rtoes 7.74667
lfemur -56.1585 12.1101 -12.4167
ltibia 97.4943
lfoot -20.4967 -15.2013
ltoes -3.57117
3315
root 30.0245 17.6566 -10.9609 1025.81 -101.423 -307.055
lowerback 11.7187 2.10459 11.6363
upperback 4.40078 3.83278 3.8439
thorax -1.37343 1.83511 -2.9357
lowerneck -12.5406 -0.597518 -9.63211
upperneck 38.0594 -1.60055 4.75162
head 15.6259 -1.94682 3.35754
rclavicle -3.4191e-014 -4.53229e-014
rhumerus -25.9419 -7.23812 -80.2007
rradius 31.4255
rwrist -12.2842
rhand -23.7879 11.8765
rfingers 7.12502
rthumb 2.68216 -18.0864
lclavicle -3.4191e-014 -4.53229e-014
lhumerus -36.4187 15.8295 82.0979
lradius 26.4104
lwrist -1.79207
lhand -17.7277 20.1004
lfingers 7.12502
lthumb 8.53313 49.908
rfemur 15.5067 -5.63958 32.6767
rtibia -1.74931e-014
rfoot -11.1999 4.26981
rtoes 6.36871
lfemur -56.871 11.9995 -12.8862
ltibia 97.0876
lfoot -20.4237 -15.2235
ltoes -3.45839
